<svg width="31" height="30" viewBox="0 0 31 30" fill="none" xmlns="http://www.w3.org/2000/svg">
<path d="M8.125 0.9375C4.50719 0.9375 1.5625 4.30219 1.5625 8.4375C1.53027 9.79747 1.86063 11.1415 2.51967 12.3316C3.17871 13.5216 4.14265 14.5148 5.3125 15.2091V26.25C5.3125 26.9959 5.60882 27.7113 6.13626 28.2387C6.66371 28.7662 7.37908 29.0625 8.125 29.0625C8.87092 29.0625 9.58629 28.7662 10.1137 28.2387C10.6412 27.7113 10.9375 26.9959 10.9375 26.25V15.2091C12.1073 14.5148 13.0713 13.5216 13.7303 12.3316C14.3894 11.1415 14.7197 9.79747 14.6875 8.4375C14.6875 4.30219 11.7428 0.9375 8.125 0.9375ZM9.64188 13.7522C9.47043 13.8231 9.32387 13.9432 9.22073 14.0974C9.1176 14.2516 9.06253 14.4329 9.0625 14.6184V26.25C9.0625 26.4986 8.96373 26.7371 8.78791 26.9129C8.6121 27.0887 8.37364 27.1875 8.125 27.1875C7.87636 27.1875 7.6379 27.0887 7.46209 26.9129C7.28627 26.7371 7.1875 26.4986 7.1875 26.25V14.6184C7.18747 14.4329 7.1324 14.2516 7.02927 14.0974C6.92613 13.9432 6.77957 13.8231 6.60813 13.7522C5.61988 13.2708 4.79352 12.5116 4.23035 11.5676C3.66717 10.6236 3.39163 9.53579 3.4375 8.4375C3.4375 5.33531 5.54031 2.8125 8.125 2.8125C10.7097 2.8125 12.8125 5.33531 12.8125 8.4375C12.8584 9.53579 12.5828 10.6236 12.0197 11.5676C11.4565 12.5116 10.6301 13.2708 9.64188 13.7522Z" fill="#E80000"/>
<path d="M28.75 0.9375C28.5014 0.9375 28.2629 1.03627 28.0871 1.21209C27.9113 1.3879 27.8125 1.62636 27.8125 1.875V11.25C27.8125 11.9959 27.5162 12.7113 26.9887 13.2387C26.4613 13.7662 25.7459 14.0625 25 14.0625C24.7514 14.0625 24.5129 14.1613 24.3371 14.3371C24.1613 14.5129 24.0625 14.7514 24.0625 15V26.25C24.0625 26.4986 23.9637 26.7371 23.7879 26.9129C23.6121 27.0887 23.3736 27.1875 23.125 27.1875C22.8764 27.1875 22.6379 27.0887 22.4621 26.9129C22.2863 26.7371 22.1875 26.4986 22.1875 26.25V15C22.1875 14.7514 22.0887 14.5129 21.9129 14.3371C21.7371 14.1613 21.4986 14.0625 21.25 14.0625C20.5041 14.0625 19.7887 13.7662 19.2613 13.2387C18.7338 12.7113 18.4375 11.9959 18.4375 11.25V1.875C18.4375 1.62636 18.3387 1.3879 18.1629 1.21209C17.9871 1.03627 17.7486 0.9375 17.5 0.9375C17.2514 0.9375 17.0129 1.03627 16.8371 1.21209C16.6613 1.3879 16.5625 1.62636 16.5625 1.875V11.25C16.5637 12.3302 16.9373 13.377 17.6205 14.2138C18.3036 15.0507 19.2544 15.6263 20.3125 15.8438V26.25C20.3125 26.9959 20.6088 27.7113 21.1363 28.2387C21.6637 28.7662 22.3791 29.0625 23.125 29.0625C23.8709 29.0625 24.5863 28.7662 25.1137 28.2387C25.6412 27.7113 25.9375 26.9959 25.9375 26.25V15.8438C26.9956 15.6263 27.9464 15.0507 28.6295 14.2138C29.3127 13.377 29.6863 12.3302 29.6875 11.25V1.875C29.6875 1.62636 29.5887 1.3879 29.4129 1.21209C29.2371 1.03627 28.9986 0.9375 28.75 0.9375Z" fill="#E80000"/>
<path d="M21.25 12.1875C21.4986 12.1875 21.7371 12.0887 21.9129 11.9129C22.0887 11.7371 22.1875 11.4986 22.1875 11.25V1.875C22.1875 1.62636 22.0887 1.3879 21.9129 1.21209C21.7371 1.03627 21.4986 0.9375 21.25 0.9375C21.0014 0.9375 20.7629 1.03627 20.5871 1.21209C20.4113 1.3879 20.3125 1.62636 20.3125 1.875V11.25C20.3125 11.4986 20.4113 11.7371 20.5871 11.9129C20.7629 12.0887 21.0014 12.1875 21.25 12.1875Z" fill="#E80000"/>
<path d="M25 12.1875C25.2486 12.1875 25.4871 12.0887 25.6629 11.9129C25.8387 11.7371 25.9375 11.4986 25.9375 11.25V1.875C25.9375 1.62636 25.8387 1.3879 25.6629 1.21209C25.4871 1.03627 25.2486 0.9375 25 0.9375C24.7514 0.9375 24.5129 1.03627 24.3371 1.21209C24.1613 1.3879 24.0625 1.62636 24.0625 1.875V11.25C24.0625 11.4986 24.1613 11.7371 24.3371 11.9129C24.5129 12.0887 24.7514 12.1875 25 12.1875Z" fill="#E80000"/>
</svg>
