<svg width="24" height="26" viewBox="0 0 24 26" fill="none" xmlns="http://www.w3.org/2000/svg">
<path d="M16.6667 25.5416H7.33333C3.075 25.5416 0.625 23.0916 0.625 18.8333V7.16659C0.625 2.90825 3.075 0.458252 7.33333 0.458252H16.6667C20.925 0.458252 23.375 2.90825 23.375 7.16659V18.8333C23.375 23.0916 20.925 25.5416 16.6667 25.5416ZM7.33333 2.20825C3.99667 2.20825 2.375 3.82992 2.375 7.16659V18.8333C2.375 22.1699 3.99667 23.7916 7.33333 23.7916H16.6667C20.0033 23.7916 21.625 22.1699 21.625 18.8333V7.16659C21.625 3.82992 20.0033 2.20825 16.6667 2.20825H7.33333Z" fill="#E80000"/>
<path d="M19.5833 9.79167H17.25C15.4767 9.79167 14.0417 8.35667 14.0417 6.58333V4.25C14.0417 3.77167 14.4383 3.375 14.9167 3.375C15.395 3.375 15.7917 3.77167 15.7917 4.25V6.58333C15.7917 7.38833 16.445 8.04167 17.25 8.04167H19.5833C20.0617 8.04167 20.4583 8.43833 20.4583 8.91667C20.4583 9.395 20.0617 9.79167 19.5833 9.79167Z" fill="#E80000"/>
<path d="M12 15.0415H7.33333C6.855 15.0415 6.45833 14.6448 6.45833 14.1665C6.45833 13.6882 6.855 13.2915 7.33333 13.2915H12C12.4783 13.2915 12.875 13.6882 12.875 14.1665C12.875 14.6448 12.4783 15.0415 12 15.0415Z" fill="#E80000"/>
<path d="M16.6667 19.7083H7.33333C6.855 19.7083 6.45833 19.3116 6.45833 18.8333C6.45833 18.3549 6.855 17.9583 7.33333 17.9583H16.6667C17.145 17.9583 17.5417 18.3549 17.5417 18.8333C17.5417 19.3116 17.145 19.7083 16.6667 19.7083Z" fill="#E80000"/>
</svg>
