<svg width="22" height="24" viewBox="0 0 22 24" fill="none" xmlns="http://www.w3.org/2000/svg">
<path fill-rule="evenodd" clip-rule="evenodd" d="M5.3 4.82043C5.3 2.34223 7.31472 0.333252 9.79997 0.333252H12.2C14.6853 0.333252 16.7 2.34223 16.7 4.82043V7.79194C17.2872 7.83849 17.8343 7.88567 18.3131 7.92893C19.8613 8.06882 21.0901 9.28261 21.2307 10.8327C21.3563 12.2158 21.5 14.1161 21.5 15.5896C21.5 17.0631 21.3563 18.9636 21.2307 20.3467C21.0901 21.8968 19.8613 23.1106 18.3131 23.2504C16.3682 23.4261 13.294 23.6666 11 23.6666C8.70598 23.6666 5.63179 23.4261 3.68688 23.2504C2.13873 23.1106 0.909873 21.8968 0.769243 20.3467C0.643757 18.9636 0.5 17.0631 0.5 15.5896C0.5 14.1161 0.643757 12.2158 0.769243 10.8327C0.909873 9.28261 2.13873 8.06882 3.68688 7.92893C4.16565 7.88567 4.71286 7.83849 5.3 7.79194V4.82043ZM6.25932 9.519C6.26411 9.5187 6.26891 9.51835 6.27369 9.51796C7.85132 9.40315 9.58903 9.30761 11 9.30761C12.411 9.30761 14.1487 9.40315 15.7263 9.51796C15.7311 9.51835 15.7358 9.5187 15.7406 9.519C16.6231 9.58332 17.4548 9.6536 18.1506 9.71652C18.8393 9.7787 19.3763 10.3141 19.438 10.9944C19.563 12.3708 19.6999 14.2028 19.6999 15.5896C19.6999 16.9766 19.563 18.8085 19.438 20.1849C19.3763 20.8653 18.8393 21.4006 18.1506 21.4629C16.2077 21.6385 13.2049 21.8717 11 21.8717C8.79512 21.8717 5.79234 21.6385 3.84932 21.4629C3.16072 21.4006 2.62365 20.8653 2.56192 20.1849C2.43704 18.8085 2.3 16.9766 2.3 15.5896C2.3 14.2028 2.43704 12.3708 2.56192 10.9944C2.62365 10.314 3.16072 9.7787 3.84932 9.71652C4.54518 9.6536 5.37695 9.58332 6.25932 9.519ZM14.9001 7.66211C13.5668 7.57639 12.1802 7.51274 11 7.51274C9.8198 7.51274 8.43317 7.57639 7.1 7.66211V4.82043C7.1 3.33351 8.30883 2.12812 9.79997 2.12812H12.2C13.6911 2.12812 14.9001 3.33351 14.9001 4.82043V7.66211ZM11 13.4957C11.497 13.4957 11.9 13.8974 11.9 14.3931V16.7863C11.9 17.2819 11.497 17.6837 11 17.6837C10.503 17.6837 10.1 17.2819 10.1 16.7863V14.3931C10.1 13.8974 10.503 13.4957 11 13.4957Z" fill="#E80000"/>
</svg>
