<svg width="24" height="24" viewBox="0 0 24 24" fill="none" xmlns="http://www.w3.org/2000/svg">
<path fill-rule="evenodd" clip-rule="evenodd" d="M2.42935 11.7509C2.39069 11.7895 2.375 11.8338 2.375 11.8715V15.7215C2.375 16.3933 2.92824 16.9465 3.59999 16.9465H5.11662C5.21672 16.9465 5.29169 16.8716 5.29169 16.7715V11.8715C5.29169 11.7768 5.21042 11.6965 5.11662 11.6965H2.55003C2.51228 11.6965 2.468 11.7122 2.42935 11.7509ZM0.625 11.8715C0.625 10.8166 1.49515 9.94653 2.55003 9.94653H5.11662C6.18951 9.94653 7.04169 10.8229 7.04169 11.8715V16.7715C7.04169 17.8381 6.18321 18.6965 5.11662 18.6965H3.59999C1.96173 18.6965 0.625 17.3597 0.625 15.7215V11.8715Z" fill="#E80000"/>
<path fill-rule="evenodd" clip-rule="evenodd" d="M12 2.36328C7.96828 2.36328 4.70833 5.62322 4.70833 9.65494V10.8333C4.70833 11.3165 4.31658 11.7083 3.83333 11.7083C3.35009 11.7083 2.95833 11.3165 2.95833 10.8333V9.65494C2.95833 4.6567 7.00172 0.613281 12 0.613281C16.9983 0.613281 21.0417 4.6567 21.0417 9.65494V10.8216C21.0417 11.3048 20.6499 11.6966 20.1667 11.6966C19.6834 11.6966 19.2917 11.3048 19.2917 10.8216V9.65494C19.2917 5.62322 16.0317 2.36328 12 2.36328Z" fill="#E80000"/>
<path fill-rule="evenodd" clip-rule="evenodd" d="M20.2223 16.9638C20.6962 17.059 21.0031 17.5202 20.9079 17.994C20.2907 21.0664 17.5815 23.375 14.3333 23.375H13.1667C12.6834 23.375 12.2917 22.9833 12.2917 22.5C12.2917 22.0167 12.6834 21.625 13.1667 21.625H14.3333C16.7319 21.625 18.736 19.9202 19.1922 17.6494C19.2874 17.1756 19.7486 16.8686 20.2223 16.9638Z" fill="#E80000"/>
<path fill-rule="evenodd" clip-rule="evenodd" d="M18.7627 11.7509C18.7241 11.7895 18.7083 11.8338 18.7083 11.8715V16.7715C18.7083 16.8662 18.7896 16.9465 18.8834 16.9465H20.3417C21.0484 16.9465 21.625 16.3699 21.625 15.6632V11.8715C21.625 11.7768 21.5438 11.6965 21.45 11.6965H18.8834C18.8457 11.6965 18.8013 11.7122 18.7627 11.7509ZM16.9583 11.8715C16.9583 10.8166 17.8285 9.94653 18.8834 9.94653H21.45C22.5228 9.94653 23.375 10.8229 23.375 11.8715V15.6632C23.375 17.3364 22.015 18.6965 20.3417 18.6965H18.8834C17.8105 18.6965 16.9583 17.8201 16.9583 16.7715V11.8715Z" fill="#E80000"/>
</svg>
