<svg width="24" height="22" viewBox="0 0 24 22" fill="none" xmlns="http://www.w3.org/2000/svg">
<path fill-rule="evenodd" clip-rule="evenodd" d="M6.79116 2.69455C6.54735 2.82231 6.36465 2.97339 6.24313 3.13965L6.23522 3.15048L2.54302 7.89064C2.42382 8.10722 2.3632 8.35901 2.37422 8.6178C2.38873 8.95891 2.52741 9.27832 2.74651 9.50421L2.7542 9.51219L11.8708 19.4012L11.8876 19.4221L11.8896 19.4237C11.8939 19.4269 11.8995 19.4301 11.9049 19.4323L11.9177 19.4377L11.9304 19.4434C11.9373 19.4466 11.9488 19.4508 11.9635 19.454C11.978 19.4572 11.9908 19.4583 12 19.4583C12.0092 19.4583 12.022 19.4572 12.0365 19.454C12.0512 19.4508 12.0627 19.4466 12.0696 19.4434L12.0822 19.4377L12.0951 19.4323C12.1005 19.4301 12.1061 19.4269 12.1105 19.4237L12.1125 19.4221L12.1289 19.4016L21.2328 9.50197C21.4562 9.26467 21.5901 8.95065 21.6146 8.60765C21.627 8.27284 21.523 7.95203 21.3286 7.71067L21.3196 7.69947L17.7898 3.1676C17.608 2.94367 17.4293 2.79767 17.23 2.70464L17.2081 2.69443L17.1868 2.68303C17.0037 2.58497 16.7758 2.53003 16.5267 2.53003H7.47338C7.2519 2.53003 7.02321 2.58423 6.79116 2.69455ZM1.92026 5.84237L4.83888 2.09532C5.15785 1.66351 5.57449 1.35361 5.99799 1.13454L6.00877 1.12899L6.01962 1.12375C6.46055 0.910873 6.9516 0.780029 7.47338 0.780029H16.5267C17.0166 0.780029 17.5271 0.885225 17.9917 1.12905C18.48 1.36165 18.8536 1.69951 19.1557 2.07359L19.1654 2.08561L22.6962 6.61881C23.1733 7.21423 23.3944 7.96036 23.3625 8.69305L23.3621 8.7025L23.3615 8.71195C23.3142 9.43687 23.0298 10.1441 22.511 10.6974L13.4541 20.5459C13.2681 20.7685 13.0309 20.9359 12.7811 21.0423C12.5456 21.1472 12.2755 21.2083 12 21.2083C11.7245 21.2083 11.4544 21.1472 11.2189 21.0423C10.9693 20.936 10.7323 20.7687 10.5464 20.5464L1.48185 10.7139C0.95941 10.1707 0.657787 9.44387 0.625804 8.69221C0.59359 7.93523 0.834698 7.18945 1.3086 6.60117L1.92026 5.84237Z" fill="#202020"/>
<path fill-rule="evenodd" clip-rule="evenodd" d="M22.395 9.56494H1.61668V7.81494H22.395V9.56494Z" fill="#202020"/>
<path fill-rule="evenodd" clip-rule="evenodd" d="M14.5598 8.70284L12.3355 1.94008L13.9979 1.39331L16.3935 8.67722L12.8502 20.5601L11.1732 20.06L14.5598 8.70284Z" fill="#202020"/>
</svg>
