<svg width="26" height="26" viewBox="0 0 26 26" fill="none" xmlns="http://www.w3.org/2000/svg">
<path fill-rule="evenodd" clip-rule="evenodd" d="M8.84947 4.71172C8.63624 4.90524 8.41109 5.45374 8.69699 6.59757L8.69902 6.60567C9.05167 8.07124 10.115 9.99897 11.7619 11.8506C13.423 13.7039 15.2116 14.9751 16.6171 15.4802L16.6257 15.4833L16.6342 15.4865C17.6326 15.8674 18.1887 15.7779 18.443 15.624L18.5276 15.549C18.6524 15.4381 18.7807 15.2235 18.8083 14.7984C18.8362 14.3681 18.7525 13.7933 18.5203 13.0988C18.0571 11.7134 17.0619 10.0281 15.6144 8.41317C14.1654 6.79647 12.6041 5.61844 11.2816 5.00099C10.6186 4.6915 10.0581 4.54264 9.62759 4.52083C9.20497 4.49941 8.97599 4.60046 8.84947 4.71172ZM12.0748 3.30204C13.6771 4.05017 15.4347 5.40342 17.0107 7.16172C18.5881 8.92174 19.7368 10.824 20.2985 12.5043C20.5789 13.3426 20.728 14.1702 20.6793 14.9199C20.64 15.5265 20.4658 16.1256 20.0875 16.6141V16.6806L19.7764 16.96C18.7582 17.8743 17.2757 17.7362 15.9744 17.2416C14.1823 16.5951 12.1501 15.0934 10.3644 13.1006L10.3621 13.098C8.58592 11.1015 7.32517 8.90652 6.87697 7.04832C6.53992 5.69659 6.58844 4.22202 7.59869 3.31492L7.60252 3.31142C8.20147 2.77962 8.96767 2.60999 9.72247 2.64823C10.4716 2.68618 11.2752 2.92872 12.0748 3.30204Z" fill="#505050"/>
<path fill-rule="evenodd" clip-rule="evenodd" d="M8.2071 3.75641C8.67997 3.9674 8.89222 4.52175 8.68125 4.99457L2.81876 18.1321L2.81788 18.134C2.32992 19.2208 3.36508 20.4055 4.53215 20.043L4.53366 20.0425L18.2551 15.7061C18.7488 15.5501 19.2755 15.8239 19.4315 16.3175C19.5875 16.8112 19.3138 17.338 18.8201 17.494L5.09514 21.8314L5.0916 21.8326C2.40967 22.6685 -0.0537407 19.9545 1.10688 17.3671C1.10671 17.3675 1.10704 17.3668 1.10688 17.3671L6.969 4.2305C7.17997 3.75767 7.7343 3.54542 8.2071 3.75641Z" fill="#505050"/>
<path fill-rule="evenodd" clip-rule="evenodd" d="M12.332 17.718C12.826 17.5631 13.3522 17.8379 13.5071 18.332L14.1692 20.4432C14.1691 20.4429 14.1693 20.4434 14.1692 20.4432C14.6866 22.0862 13.7635 23.8634 12.1194 24.3817L10.0069 25.0442C10.0066 25.0443 10.0072 25.0441 10.0069 25.0442C8.36383 25.5617 6.58663 24.6385 6.06846 22.9944L5.40551 20.8806C5.25058 20.3865 5.52546 19.8605 6.01956 19.7055C6.51358 19.5506 7.03963 19.8254 7.19458 20.3195L7.85668 22.4307C7.85661 22.4305 7.85676 22.4309 7.85668 22.4307C8.06361 23.086 8.78668 23.4629 9.44323 23.2559L11.5557 22.5935C11.5555 22.5935 11.5559 22.5934 11.5557 22.5935C12.211 22.3865 12.5878 21.6635 12.3809 21.0069L11.718 18.8931C11.563 18.399 11.838 17.873 12.332 17.718Z" fill="#505050"/>
<path fill-rule="evenodd" clip-rule="evenodd" d="M23.8344 2.2457C24.2025 2.60975 24.2059 3.20333 23.8419 3.57151L22.7418 4.68403C22.3778 5.0522 21.7842 5.05556 21.4161 4.69152C21.0478 4.32749 21.0445 3.7339 21.4086 3.36572L22.5085 2.2532C22.8726 1.88502 23.4662 1.88166 23.8344 2.2457Z" fill="#505050"/>
<path fill-rule="evenodd" clip-rule="evenodd" d="M17.8887 0.896844C18.3599 1.11149 18.5678 1.66747 18.3531 2.13864L17.8407 3.26363C17.626 3.73481 17.07 3.94277 16.5989 3.72812C16.1277 3.51347 15.9198 2.95749 16.1344 2.48632L16.6469 1.36133C16.8615 0.890146 17.4175 0.682194 17.8887 0.896844Z" fill="#505050"/>
<path fill-rule="evenodd" clip-rule="evenodd" d="M25.0765 8.05724C25.321 8.51362 25.1492 9.08182 24.6928 9.32632L23.6428 9.88889C23.1865 10.1334 22.6183 9.96157 22.3738 9.50519C22.1293 9.04882 22.301 8.48062 22.7574 8.23612L23.8074 7.67354C24.2638 7.42904 24.832 7.60087 25.0765 8.05724Z" fill="#505050"/>
</svg>
