<svg width="28" height="27" viewBox="0 0 28 27" fill="none" xmlns="http://www.w3.org/2000/svg">
<path d="M20.625 15.5C21.3154 15.5 21.875 14.9404 21.875 14.25C21.875 13.5596 21.3154 13 20.625 13C19.9346 13 19.375 13.5596 19.375 14.25C19.375 14.9404 19.9346 15.5 20.625 15.5Z" fill="#E80000"/>
<path d="M20.625 20.5C21.3154 20.5 21.875 19.9404 21.875 19.25C21.875 18.5596 21.3154 18 20.625 18C19.9346 18 19.375 18.5596 19.375 19.25C19.375 19.9404 19.9346 20.5 20.625 20.5Z" fill="#E80000"/>
<path d="M15.625 14.25C15.625 14.9404 15.0654 15.5 14.375 15.5C13.6846 15.5 13.125 14.9404 13.125 14.25C13.125 13.5596 13.6846 13 14.375 13C15.0654 13 15.625 13.5596 15.625 14.25Z" fill="#E80000"/>
<path d="M15.625 19.25C15.625 19.9404 15.0654 20.5 14.375 20.5C13.6846 20.5 13.125 19.9404 13.125 19.25C13.125 18.5596 13.6846 18 14.375 18C15.0654 18 15.625 18.5596 15.625 19.25Z" fill="#E80000"/>
<path d="M8.125 15.5C8.81536 15.5 9.375 14.9404 9.375 14.25C9.375 13.5596 8.81536 13 8.125 13C7.43465 13 6.875 13.5596 6.875 14.25C6.875 14.9404 7.43465 15.5 8.125 15.5Z" fill="#E80000"/>
<path d="M8.125 20.5C8.81536 20.5 9.375 19.9404 9.375 19.25C9.375 18.5596 8.81536 18 8.125 18C7.43465 18 6.875 18.5596 6.875 19.25C6.875 19.9404 7.43465 20.5 8.125 20.5Z" fill="#E80000"/>
<path fill-rule="evenodd" clip-rule="evenodd" d="M8.125 0.1875C8.64276 0.1875 9.0625 0.607238 9.0625 1.125V2.0784C9.89 2.06249 10.8017 2.06249 11.8043 2.0625H16.9455C17.9482 2.06249 18.86 2.06249 19.6875 2.0784V1.125C19.6875 0.607238 20.1073 0.1875 20.625 0.1875C21.1427 0.1875 21.5625 0.607238 21.5625 1.125V2.15886C21.8874 2.18364 22.1951 2.21478 22.4862 2.25391C23.9517 2.45095 25.138 2.8661 26.0735 3.80155C27.0089 4.73701 27.424 5.92319 27.6211 7.38873C27.8125 8.81273 27.8125 10.6322 27.8125 12.9294V15.5705C27.8125 17.8676 27.8125 19.6873 27.6211 21.1112C27.424 22.5767 27.0089 23.763 26.0735 24.6985C25.138 25.6339 23.9517 26.049 22.4862 26.2461C21.0623 26.4375 19.2428 26.4375 16.9456 26.4375H11.8045C9.50731 26.4375 7.68773 26.4375 6.26373 26.2461C4.7982 26.049 3.61201 25.6339 2.67655 24.6985C1.7411 23.763 1.32595 22.5767 1.12893 21.1112C0.937463 19.6873 0.937476 17.8678 0.937501 15.5705V12.9295C0.937476 10.6322 0.937463 8.81274 1.12893 7.38873C1.32595 5.92319 1.7411 4.73701 2.67655 3.80155C3.61201 2.8661 4.7982 2.45095 6.26373 2.25391C6.55488 2.21478 6.86258 2.18364 7.1875 2.15886V1.125C7.1875 0.607238 7.60724 0.1875 8.125 0.1875ZM6.51356 4.1122C5.25595 4.28127 4.53139 4.59836 4.00238 5.12738C3.47336 5.65639 3.15628 6.38095 2.9872 7.63856C2.95856 7.85154 2.93463 8.07576 2.9146 8.3125H25.8354C25.8154 8.07576 25.7914 7.85155 25.7628 7.63856C25.5938 6.38095 25.2766 5.65639 24.7476 5.12738C24.2186 4.59836 23.494 4.28127 22.2365 4.1122C20.9519 3.93949 19.2585 3.9375 16.875 3.9375H11.875C9.49148 3.9375 7.79814 3.93949 6.51356 4.1122ZM2.8125 13C2.8125 11.9325 2.8129 11.0034 2.82886 10.1875H25.9211C25.9371 11.0034 25.9375 11.9325 25.9375 13V15.5C25.9375 17.8835 25.9355 19.5769 25.7628 20.8615C25.5938 22.119 25.2766 22.8436 24.7476 23.3726C24.2186 23.9016 23.494 24.2188 22.2365 24.3878C20.9519 24.5605 19.2585 24.5625 16.875 24.5625H11.875C9.49148 24.5625 7.79814 24.5605 6.51356 24.3878C5.25595 24.2188 4.53139 23.9016 4.00238 23.3726C3.47336 22.8436 3.15628 22.119 2.9872 20.8615C2.81449 19.5769 2.8125 17.8835 2.8125 15.5V13Z" fill="#E80000"/>
</svg>
