<svg width="31" height="30" viewBox="0 0 31 30" fill="none" xmlns="http://www.w3.org/2000/svg">
<path fill-rule="evenodd" clip-rule="evenodd" d="M15.1249 10.3125C12.5361 10.3125 10.4374 12.4112 10.4374 15C10.4374 17.5889 12.5361 19.6875 15.1249 19.6875C17.7138 19.6875 19.8124 17.5889 19.8124 15C19.8124 12.4112 17.7138 10.3125 15.1249 10.3125ZM12.3124 15C12.3124 13.4468 13.5716 12.1875 15.1249 12.1875C16.6783 12.1875 17.9374 13.4468 17.9374 15C17.9374 16.5534 16.6783 17.8125 15.1249 17.8125C13.5716 17.8125 12.3124 16.5534 12.3124 15Z" fill="#E80000"/>
<path fill-rule="evenodd" clip-rule="evenodd" d="M19.3934 4.04099C18.1677 -0.253246 12.082 -0.253245 10.8565 4.04099C10.4768 5.37149 9.1099 6.16069 7.76779 5.82427C3.43613 4.73849 0.393249 10.0089 3.4994 13.2174C4.4618 14.2115 4.4618 15.7899 3.4994 16.7839C0.393249 19.9924 3.43613 25.2628 7.76779 24.177C9.1099 23.8406 10.4768 24.6297 10.8565 25.9603C12.082 30.2545 18.1677 30.2545 19.3934 25.9603C19.773 24.6297 21.14 23.8406 22.4821 24.177C26.8138 25.2628 29.8566 19.9924 26.7505 16.7839C25.7881 15.7899 25.7881 14.2115 26.7505 13.2174C29.8566 10.0089 26.8138 4.73849 22.4821 5.82427C21.14 6.16069 19.773 5.37149 19.3934 4.04099ZM12.6595 4.55554C13.3674 2.07524 16.8825 2.07524 17.5903 4.55554C18.2478 6.85909 20.6144 8.22545 22.938 7.643C25.4399 7.01586 27.1974 10.06 25.4034 11.9132C23.7371 13.6342 23.7371 16.367 25.4034 18.0881C27.1974 19.9412 25.4399 22.9854 22.938 22.3582C20.6144 21.7759 18.2478 23.1423 17.5903 25.4457C16.8825 27.926 13.3674 27.926 12.6595 25.4457C12.0022 23.1423 9.63554 21.7759 7.3119 22.3582C4.80997 22.9854 3.05245 19.9412 4.84652 18.0881C6.51275 16.367 6.51275 13.6342 4.84652 11.9132C3.05245 10.06 4.80997 7.01586 7.3119 7.643C9.63554 8.22545 12.0022 6.85909 12.6595 4.55554Z" fill="#E80000"/>
</svg>
