<svg width="24" height="24" viewBox="0 0 24 24" fill="none" xmlns="http://www.w3.org/2000/svg">
<path d="M9.90642 1.63127C10.3779 1.15799 10.9012 0.765642 11.5699 0.659102C11.7123 0.63641 11.856 0.625 12 0.625C12.144 0.625 12.2877 0.63641 12.4302 0.659102C13.0989 0.765642 13.6221 1.15799 14.0936 1.63127C14.553 2.09248 15.0664 2.73988 15.6883 3.52445L17.3523 5.62304C17.6525 6.0017 17.5889 6.55206 17.2103 6.85229C16.8316 7.15254 16.2813 7.08896 15.981 6.7103L14.3503 4.6535C13.699 3.83213 13.2515 3.2698 12.875 2.88777V17.8333C12.875 18.3166 12.4832 18.7083 12 18.7083C11.5168 18.7083 11.125 18.3166 11.125 17.8333V2.88777C10.7486 3.2698 10.3011 3.83213 9.6498 4.6535L8.01897 6.7103C7.71874 7.08896 7.16838 7.15254 6.78971 6.85229C6.41105 6.55206 6.34748 6.0017 6.64772 5.62304L8.31167 3.52446C8.9337 2.73991 9.44702 2.09247 9.90642 1.63127Z" fill="#E80000"/>
<path d="M22.0333 10.3078C21.7432 9.92141 21.1946 9.84348 20.8082 10.1336C20.4219 10.4239 20.3439 10.9723 20.6341 11.3587C21.2566 12.1874 21.625 13.2161 21.625 14.3333V15.4999C21.625 16.6173 21.6223 17.074 21.564 17.4422C21.228 19.5639 19.564 21.2278 17.4424 21.5639C17.0741 21.6223 16.6173 21.6249 15.5 21.6249H8.50001C7.38273 21.6249 6.92597 21.6223 6.55769 21.5639C4.43606 21.2278 2.77209 19.5639 2.43605 17.4422C2.37773 17.074 2.37501 16.6173 2.37501 15.4999V14.3333C2.37501 13.2161 2.74347 12.1874 3.36587 11.3587C3.65609 10.9723 3.57815 10.4239 3.19176 10.1336C2.80536 9.84348 2.25686 9.92141 1.96663 10.3078C1.12442 11.429 0.625012 12.8241 0.625012 14.3333L0.625 15.5942C0.62493 16.5882 0.624884 17.1937 0.7076 17.716C1.16224 20.5865 3.41349 22.8377 6.28393 23.2923C6.80622 23.3751 7.41171 23.3751 8.40575 23.3749H15.5943C16.5883 23.3751 17.1938 23.3751 17.7161 23.2923C20.5865 22.8377 22.8377 20.5865 23.2924 17.716C23.3751 17.1937 23.3751 16.5882 23.375 15.5942V14.3333C23.375 12.8241 22.8756 11.429 22.0333 10.3078Z" fill="#E80000"/>
</svg>
