<svg width="28" height="28" viewBox="0 0 28 28" fill="none" xmlns="http://www.w3.org/2000/svg">
<path fill-rule="evenodd" clip-rule="evenodd" d="M15.9049 2.44467C15.8231 2.43512 15.7405 2.43512 15.6586 2.44467C15.5573 2.45652 15.4061 2.50332 15.105 2.74228C14.7882 2.99355 14.4082 3.37147 13.8274 3.95237C13.2465 4.53328 12.8685 4.91324 12.6173 5.22994C12.3783 5.53113 12.3315 5.68229 12.3196 5.78369C12.3101 5.86548 12.3101 5.9481 12.3196 6.02989C12.3315 6.13129 12.3783 6.28246 12.6173 6.58364C12.8685 6.90034 13.2465 7.28032 13.8274 7.86122L20.0137 14.0476C20.5947 14.6285 20.9746 15.0065 21.2914 15.2578C21.5925 15.4968 21.7437 15.5435 21.8451 15.5554C21.9269 15.5649 22.0095 15.5649 22.0914 15.5554C22.1927 15.5435 22.3439 15.4968 22.645 15.2578C22.9618 15.0065 23.3417 14.6285 23.9226 14.0476C24.5035 13.4668 24.8815 13.0868 25.1327 12.77C25.3717 12.4689 25.4185 12.3178 25.4304 12.2164C25.4399 12.1345 25.4399 12.0519 25.4304 11.9701C25.4185 11.8688 25.3717 11.7175 25.1327 11.4164C24.8815 11.0997 24.5035 10.7197 23.9226 10.1388L17.7362 3.95237C17.1552 3.37147 16.7754 2.99355 16.4586 2.74228C16.1575 2.50332 16.0063 2.45652 15.9049 2.44467ZM15.4411 0.582328C15.6675 0.555891 15.8961 0.555891 16.1224 0.582328C16.7111 0.651091 17.1876 0.927141 17.624 1.27345C18.0355 1.59987 18.4915 2.05597 19.0247 2.58929L25.2857 8.85027C25.819 9.38353 26.2751 9.83958 26.6015 10.251C26.9479 10.6874 27.2239 11.1639 27.2926 11.7526C27.3191 11.9789 27.3191 12.2075 27.2926 12.4339C27.2239 13.0225 26.9479 13.499 26.6015 13.9355C26.2751 14.3469 25.819 14.8029 25.2857 15.3363L25.2112 15.4108C24.6779 15.944 24.2219 16.4001 23.8105 16.7265C23.374 17.0729 22.8975 17.3489 22.3089 17.4176C22.0825 17.4441 21.8539 17.4441 21.6276 17.4176C21.0389 17.3489 20.5624 17.0729 20.126 16.7265C19.7145 16.4001 19.2585 15.944 18.7253 15.4108L17.961 14.6465L14.5215 18.086L15.2857 18.8503C15.819 19.3835 16.2751 19.8395 16.6015 20.251C16.9479 20.6874 17.2239 21.1639 17.2926 21.7526C17.3191 21.9789 17.3191 22.2075 17.2926 22.4339C17.2239 23.0225 16.9479 23.499 16.6015 23.9355C16.2751 24.3469 15.819 24.803 15.2856 25.3363L15.2113 25.4106C14.678 25.944 14.2219 26.4001 13.8105 26.7265C13.374 27.0729 12.8975 27.3489 12.3089 27.4176C12.0825 27.4441 11.8539 27.4441 11.6276 27.4176C11.0389 27.3489 10.5624 27.0729 10.126 26.7265C9.71455 26.4001 9.25849 25.944 8.72522 25.4108L2.4643 19.1498C1.93097 18.6165 1.47487 18.1605 1.14845 17.749C0.802137 17.3126 0.526087 16.8361 0.457324 16.2474C0.430887 16.0211 0.430887 15.7925 0.457324 15.5661C0.526087 14.9775 0.802137 14.501 1.14845 14.0645C1.47486 13.6531 1.93096 13.1971 2.46427 12.6638L2.53881 12.5893C3.07207 12.056 3.52814 11.5999 3.93954 11.2735C4.376 10.9271 4.85245 10.6511 5.44117 10.5823C5.66747 10.5559 5.8961 10.5559 6.12241 10.5823C6.71112 10.6511 7.18757 10.9271 7.62404 11.2735C8.03544 11.5999 8.4915 12.056 9.02476 12.5893L9.31566 12.8801L12.7551 9.44067L12.4642 9.14978C11.931 8.6165 11.4749 8.16044 11.1484 7.74904C10.8021 7.31258 10.5261 6.83613 10.4573 6.24742C10.4309 6.0211 10.4309 5.79248 10.4573 5.56618C10.5261 4.97745 10.8021 4.501 11.1484 4.06454C11.4749 3.65314 11.931 3.19709 12.4642 2.66382L12.5387 2.58928C13.0721 2.05597 13.5281 1.59987 13.9395 1.27345C14.376 0.927141 14.8525 0.651091 15.4411 0.582328ZM14.081 10.7665L10.6415 14.206L13.1956 16.7603L16.6353 13.3206L14.081 10.7665ZM20.7356 1.45995C21.1017 1.09384 21.6952 1.09384 22.0614 1.45995L25.9414 5.33997C26.3075 5.70609 26.3075 6.29968 25.9414 6.66579C25.5752 7.03192 24.9817 7.03192 24.6156 6.66579L20.7356 2.78578C20.3695 2.41967 20.3695 1.82607 20.7356 1.45995ZM5.90489 12.4446C5.8231 12.4351 5.74047 12.4351 5.65869 12.4446C5.55729 12.4565 5.40612 12.5033 5.10494 12.7423C4.78824 12.9935 4.40827 13.3715 3.82736 13.9524C3.24646 14.5333 2.86855 14.9133 2.61727 15.23C2.37831 15.5311 2.33151 15.6823 2.31966 15.7836C2.31011 15.8655 2.31011 15.9481 2.31966 16.0299C2.33151 16.1313 2.37831 16.2825 2.61727 16.5836C2.86855 16.9004 3.24646 17.2803 3.82737 17.8613L10.0138 24.0476C10.5947 24.6285 10.9747 25.0065 11.2914 25.2578C11.5925 25.4968 11.7437 25.5435 11.8451 25.5554C11.9269 25.5649 12.0095 25.5649 12.0914 25.5554C12.1927 25.5435 12.3439 25.4968 12.645 25.2578C12.9617 25.0065 13.3418 24.6285 13.9226 24.0476C14.5035 23.4668 14.8815 23.0868 15.1327 22.77C15.3717 22.4689 15.4185 22.3178 15.4304 22.2164C15.4399 22.1345 15.4399 22.0519 15.4304 21.9701C15.4185 21.8688 15.3717 21.7175 15.1327 21.4164C14.8815 21.0996 14.5035 20.7198 13.9226 20.1388L7.73621 13.9524C7.1553 13.3715 6.77534 12.9935 6.45864 12.7423C6.15746 12.5033 6.00629 12.4565 5.90489 12.4446ZM1.33404 20.8599C1.70015 20.4938 2.29375 20.4938 2.65986 20.8599L6.53987 24.7399C6.90599 25.106 6.90599 25.6995 6.53987 26.0656C6.17376 26.4318 5.58016 26.4318 5.21405 26.0656L1.33404 22.1856C0.967924 21.8195 0.967924 21.226 1.33404 20.8599Z" fill="#E80000"/>
</svg>
